# xmcd CD database file
#
# Track frame offsets:
#	150
#	19997
#	32935
#	48005
#	61552
#	73090
#	85057
#	95870
#	107957
#	122777
#	136687
#	150452
#	161635
#	174750
#	183462
#	197365
#	228867
#	241275
#	252317
#	265772
#	278212
#	298375
#
# Disc length: 4167 seconds
#
# Revision: 2
# Processed by: cddbd v1.5.2PL0 Copyright (c) Steve Scherf et al.
# Submitted via: CDex 1.51
#
DISCID=2f104516
DTITLE=Various Artist - The Great Tomato Blues Package, CD 1
DYEAR=1989
DGENRE=Blues
TTITLE0=Johnny Shines - Too Wet To Plow
TTITLE1=Mississippi Fred McDowell - You Got To Move
TTITLE2=Peg Leg Sam - Joshua Fit The Battle Of Jericho
TTITLE3=Louisiana Red - Sweet Blood Call
TTITLE4=Lightnin' Hopkins - Cryin' Shame
TTITLE5=Sonny Terry - Playing With The Thing
TTITLE6=Sonny Boy Williams - Fattening Frogs For Snakes
TTITLE7=Roosevelt Sykes - Music Is My Business
TTITLE8=Jelly Roll Morton - Dead Man Blues
TTITLE9=Louis Armstrong - St. Louis Blues
TTITLE10=Bessie Smith - Alexander's Ragtime Band
TTITLE11=Champion Jack Dupree - Shake Baby Shake
TTITLE12=Willie Mabon - Poison Ivy
TTITLE13=Billie Holliday - Please Don't Talk About Me When I'm Gone
TTITLE14=Charlie Parker - Parker's Mood
TTITLE15=`Big Mama' Thornton - Ball and Chain
TTITLE16=Little Walter - Juke
TTITLE17=Howlin' Wolf - Little Red Rooster
TTITLE18=Buster Brown - Fanny Mae
TTITLE19=Elmore James - The Sky Is Crying
TTITLE20=Aretha Franklin - There Is A Fountain
TTITLE21=Ray Charles - Blues Is My Middle Name
EXTD=YEAR: 1989
EXTT0=
EXTT1=
EXTT2=
EXTT3=
EXTT4=
EXTT5=
EXTT6=
EXTT7=
EXTT8=
EXTT9=
EXTT10=
EXTT11=
EXTT12=
EXTT13=
EXTT14=
EXTT15=
EXTT16=
EXTT17=
EXTT18=
EXTT19=
EXTT20=
EXTT21=
PLAYORDER=
